<svg xmlns="http://www.w3.org/2000/svg" viewBox="0 0 800 460" width="800" height="460">
  <rect width="800" height="460" fill="#1a1a2e" rx="12"/>
  <text x="400" y="38" text-anchor="middle" fill="#e0e0e0" font-family="monospace" font-size="20" font-weight="bold">🌐 pi-libp2p Mesh Topology</text>
  <text x="400" y="60" text-anchor="middle" fill="#888" font-family="monospace" font-size="12">4 peers · fully connected mesh</text>
  <line x1="400" y1="60" x2="100" y2="330" stroke="#555" stroke-width="2" stroke-dasharray="6,3"/>
  <text x="250.0" y="187.0" text-anchor="middle" fill="#666" font-family="monospace" font-size="9">libp2p</text>
  <line x1="400" y1="60" x2="400" y2="380" stroke="#555" stroke-width="2" stroke-dasharray="6,3"/>
  <text x="400.0" y="212.0" text-anchor="middle" fill="#666" font-family="monospace" font-size="9">libp2p</text>
  <line x1="400" y1="60" x2="700" y2="260" stroke="#555" stroke-width="2" stroke-dasharray="6,3"/>
  <text x="550.0" y="152.0" text-anchor="middle" fill="#666" font-family="monospace" font-size="9">libp2p</text>
  <line x1="100" y1="330" x2="400" y2="380" stroke="#555" stroke-width="2" stroke-dasharray="6,3"/>
  <text x="250.0" y="347.0" text-anchor="middle" fill="#666" font-family="monospace" font-size="9">libp2p</text>
  <line x1="100" y1="330" x2="700" y2="260" stroke="#555" stroke-width="2" stroke-dasharray="6,3"/>
  <text x="400.0" y="287.0" text-anchor="middle" fill="#666" font-family="monospace" font-size="9">libp2p</text>
  <line x1="400" y1="380" x2="700" y2="260" stroke="#555" stroke-width="2" stroke-dasharray="6,3"/>
  <text x="550.0" y="312.0" text-anchor="middle" fill="#666" font-family="monospace" font-size="9">libp2p</text>
  <circle cx="400" cy="60" r="44" fill="none" stroke="#4CAF50" stroke-width="1" opacity="0.3"/>
  <circle cx="400" cy="60" r="40" fill="#4CAF50" opacity="0.9"/>
  <circle cx="400" cy="60" r="40" fill="none" stroke="#fff" stroke-width="1.5" opacity="0.3"/>
  <text x="400" y="56" text-anchor="middle" fill="#fff" font-family="monospace" font-size="16" font-weight="bold">paul</text>
  <text x="400" y="74" text-anchor="middle" fill="#fff" font-family="monospace" font-size="9" opacity="0.8">you (pi)</text>
  <circle cx="100" cy="330" r="44" fill="none" stroke="#2196F3" stroke-width="1" opacity="0.3"/>
  <circle cx="100" cy="330" r="40" fill="#2196F3" opacity="0.9"/>
  <circle cx="100" cy="330" r="40" fill="none" stroke="#fff" stroke-width="1.5" opacity="0.3"/>
  <text x="100" y="326" text-anchor="middle" fill="#fff" font-family="monospace" font-size="16" font-weight="bold">ethan</text>
  <text x="100" y="344" text-anchor="middle" fill="#fff" font-family="monospace" font-size="9" opacity="0.8">12D3KooWD...9QUcz</text>
  <circle cx="400" cy="380" r="44" fill="none" stroke="#FF9800" stroke-width="1" opacity="0.3"/>
  <circle cx="400" cy="380" r="40" fill="#FF9800" opacity="0.9"/>
  <circle cx="400" cy="380" r="40" fill="none" stroke="#fff" stroke-width="1.5" opacity="0.3"/>
  <text x="400" y="376" text-anchor="middle" fill="#fff" font-family="monospace" font-size="16" font-weight="bold">bob</text>
  <text x="400" y="394" text-anchor="middle" fill="#fff" font-family="monospace" font-size="9" opacity="0.8">12D3KooWM...PPC</text>
  <circle cx="700" cy="260" r="44" fill="none" stroke="#9C27B0" stroke-width="1" opacity="0.3"/>
  <circle cx="700" cy="260" r="40" fill="#9C27B0" opacity="0.9"/>
  <circle cx="700" cy="260" r="40" fill="none" stroke="#fff" stroke-width="1.5" opacity="0.3"/>
  <text x="700" y="256" text-anchor="middle" fill="#fff" font-family="monospace" font-size="16" font-weight="bold">blair</text>
  <text x="700" y="274" text-anchor="middle" fill="#fff" font-family="monospace" font-size="9" opacity="0.8">12D3KooWK...NkF</text>
  <text x="20" y="440" fill="#888" font-family="monospace" font-size="11">🟢 4/4 peers connected  |  Edges: libp2p TCP/WebSocket  |  6 connections total</text>
</svg>
